<?xml version="1.0"?>
<!DOCTYPE svg PUBLIC "-//W3C//DTD SVG 1.1//EN" "http://www.w3.org/Graphics/SVG/1.1/DTD/svg11.dtd">
<svg width="54.0mm" height="24.0mm" viewBox="3.000000 -27.000000 54.000000 24.000000" xmlns="http://www.w3.org/2000/svg" version="1.1">
<g id="hole_1" transform="scale(1,-1)">
<path id="hole_1_f0000"  d="M 3.0 6.0 L 3.0 3.0 L 3.0 3.0 L 3.0 6.0 L 3.0 6.0 Z " stroke="#191919" stroke-width="0.35 px" style="stroke-width:0.35;stroke-miterlimit:4;stroke-dasharray:none;fill:#cccccc;fill-rule: evenodd "/>
<path id="hole_1_f0001"  d="M 12.0 3.0 L 12.0 3.0 L 12.0 6.0 L 12.0 6.0 L 12.0 3.0 Z " stroke="#191919" stroke-width="0.35 px" style="stroke-width:0.35;stroke-miterlimit:4;stroke-dasharray:none;fill:#cccccc;fill-rule: evenodd "/>
<path id="hole_1_f0002"  d="M 3.0 3.0 L 3.0 3.0 L 12.0 3.0 L 12.0 3.0 L 3.0 3.0 Z " stroke="#191919" stroke-width="0.35 px" style="stroke-width:0.35;stroke-miterlimit:4;stroke-dasharray:none;fill:#cccccc;fill-rule: evenodd "/>
<path id="hole_1_f0003"  d="M 12.0 6.0 L 3.0 6.0 L 3.0 6.0 L 12.0 6.0 L 12.0 6.0 Z " stroke="#191919" stroke-width="0.35 px" style="stroke-width:0.35;stroke-miterlimit:4;stroke-dasharray:none;fill:#cccccc;fill-rule: evenodd "/>
<path id="hole_1_f0004"  d="M 12.0 3.0 L 3.0 3.0 L 3.0 6.0 L 12.0 6.0 L 12.0 3.0 Z " stroke="#191919" stroke-width="0.35 px" style="stroke-width:0.35;stroke-miterlimit:4;stroke-dasharray:none;fill:#cccccc;fill-rule: evenodd "/>
<path id="hole_1_f0005"  d="M 3.0 6.0 L 3.0 3.0 L 12.0 3.0 L 12.0 6.0 L 3.0 6.0 Z " stroke="#191919" stroke-width="0.35 px" style="stroke-width:0.35;stroke-miterlimit:4;stroke-dasharray:none;fill:#cccccc;fill-rule: evenodd "/>
<title>hole_1</title>
</g>
<g id="hole_2" transform="scale(1,-1)">
<path id="hole_2_f0000"  d="M 48.0 6.0 L 48.0 3.0 L 48.0 3.0 L 48.0 6.0 L 48.0 6.0 Z " stroke="#191919" stroke-width="0.35 px" style="stroke-width:0.35;stroke-miterlimit:4;stroke-dasharray:none;fill:#cccccc;fill-rule: evenodd "/>
<path id="hole_2_f0001"  d="M 57.0 3.0 L 57.0 3.0 L 57.0 6.0 L 57.0 6.0 L 57.0 3.0 Z " stroke="#191919" stroke-width="0.35 px" style="stroke-width:0.35;stroke-miterlimit:4;stroke-dasharray:none;fill:#cccccc;fill-rule: evenodd "/>
<path id="hole_2_f0002"  d="M 48.0 3.0 L 48.0 3.0 L 57.0 3.0 L 57.0 3.0 L 48.0 3.0 Z " stroke="#191919" stroke-width="0.35 px" style="stroke-width:0.35;stroke-miterlimit:4;stroke-dasharray:none;fill:#cccccc;fill-rule: evenodd "/>
<path id="hole_2_f0003"  d="M 57.0 6.0 L 48.0 6.0 L 48.0 6.0 L 57.0 6.0 L 57.0 6.0 Z " stroke="#191919" stroke-width="0.35 px" style="stroke-width:0.35;stroke-miterlimit:4;stroke-dasharray:none;fill:#cccccc;fill-rule: evenodd "/>
<path id="hole_2_f0004"  d="M 57.0 3.0 L 48.0 3.0 L 48.0 6.0 L 57.0 6.0 L 57.0 3.0 Z " stroke="#191919" stroke-width="0.35 px" style="stroke-width:0.35;stroke-miterlimit:4;stroke-dasharray:none;fill:#cccccc;fill-rule: evenodd "/>
<path id="hole_2_f0005"  d="M 48.0 6.0 L 48.0 3.0 L 57.0 3.0 L 57.0 6.0 L 48.0 6.0 Z " stroke="#191919" stroke-width="0.35 px" style="stroke-width:0.35;stroke-miterlimit:4;stroke-dasharray:none;fill:#cccccc;fill-rule: evenodd "/>
<title>hole_2</title>
</g>
<g id="hole_3" transform="scale(1,-1)">
<path id="hole_3_f0000"  d="M 3.0 27.0 L 3.0 24.0 L 3.0 24.0 L 3.0 27.0 L 3.0 27.0 Z " stroke="#191919" stroke-width="0.35 px" style="stroke-width:0.35;stroke-miterlimit:4;stroke-dasharray:none;fill:#cccccc;fill-rule: evenodd "/>
<path id="hole_3_f0001"  d="M 12.0 24.0 L 12.0 24.0 L 12.0 27.0 L 12.0 27.0 L 12.0 24.0 Z " stroke="#191919" stroke-width="0.35 px" style="stroke-width:0.35;stroke-miterlimit:4;stroke-dasharray:none;fill:#cccccc;fill-rule: evenodd "/>
<path id="hole_3_f0002"  d="M 3.0 24.0 L 3.0 24.0 L 12.0 24.0 L 12.0 24.0 L 3.0 24.0 Z " stroke="#191919" stroke-width="0.35 px" style="stroke-width:0.35;stroke-miterlimit:4;stroke-dasharray:none;fill:#cccccc;fill-rule: evenodd "/>
<path id="hole_3_f0003"  d="M 12.0 27.0 L 3.0 27.0 L 3.0 27.0 L 12.0 27.0 L 12.0 27.0 Z " stroke="#191919" stroke-width="0.35 px" style="stroke-width:0.35;stroke-miterlimit:4;stroke-dasharray:none;fill:#cccccc;fill-rule: evenodd "/>
<path id="hole_3_f0004"  d="M 12.0 24.0 L 3.0 24.0 L 3.0 27.0 L 12.0 27.0 L 12.0 24.0 Z " stroke="#191919" stroke-width="0.35 px" style="stroke-width:0.35;stroke-miterlimit:4;stroke-dasharray:none;fill:#cccccc;fill-rule: evenodd "/>
<path id="hole_3_f0005"  d="M 3.0 27.0 L 3.0 24.0 L 12.0 24.0 L 12.0 27.0 L 3.0 27.0 Z " stroke="#191919" stroke-width="0.35 px" style="stroke-width:0.35;stroke-miterlimit:4;stroke-dasharray:none;fill:#cccccc;fill-rule: evenodd "/>
<title>hole_3</title>
</g>
<g id="hole_4" transform="scale(1,-1)">
<path id="hole_4_f0000"  d="M 48.0 27.0 L 48.0 24.0 L 48.0 24.0 L 48.0 27.0 L 48.0 27.0 Z " stroke="#191919" stroke-width="0.35 px" style="stroke-width:0.35;stroke-miterlimit:4;stroke-dasharray:none;fill:#cccccc;fill-rule: evenodd "/>
<path id="hole_4_f0001"  d="M 57.0 24.0 L 57.0 24.0 L 57.0 27.0 L 57.0 27.0 L 57.0 24.0 Z " stroke="#191919" stroke-width="0.35 px" style="stroke-width:0.35;stroke-miterlimit:4;stroke-dasharray:none;fill:#cccccc;fill-rule: evenodd "/>
<path id="hole_4_f0002"  d="M 48.0 24.0 L 48.0 24.0 L 57.0 24.0 L 57.0 24.0 L 48.0 24.0 Z " stroke="#191919" stroke-width="0.35 px" style="stroke-width:0.35;stroke-miterlimit:4;stroke-dasharray:none;fill:#cccccc;fill-rule: evenodd "/>
<path id="hole_4_f0003"  d="M 57.0 27.0 L 48.0 27.0 L 48.0 27.0 L 57.0 27.0 L 57.0 27.0 Z " stroke="#191919" stroke-width="0.35 px" style="stroke-width:0.35;stroke-miterlimit:4;stroke-dasharray:none;fill:#cccccc;fill-rule: evenodd "/>
<path id="hole_4_f0004"  d="M 57.0 24.0 L 48.0 24.0 L 48.0 27.0 L 57.0 27.0 L 57.0 24.0 Z " stroke="#191919" stroke-width="0.35 px" style="stroke-width:0.35;stroke-miterlimit:4;stroke-dasharray:none;fill:#cccccc;fill-rule: evenodd "/>
<path id="hole_4_f0005"  d="M 48.0 27.0 L 48.0 24.0 L 57.0 24.0 L 57.0 27.0 L 48.0 27.0 Z " stroke="#191919" stroke-width="0.35 px" style="stroke-width:0.35;stroke-miterlimit:4;stroke-dasharray:none;fill:#cccccc;fill-rule: evenodd "/>
<title>hole_4</title>
</g>
<g id="camera" transform="scale(1,-1)">
<path id="camera_f0000"  d="M 24.0 19.0 L 24.0 10.0 L 24.0 10.0 L 24.0 19.0 L 24.0 19.0 Z " stroke="#191919" stroke-width="0.35 px" style="stroke-width:0.35;stroke-miterlimit:4;stroke-dasharray:none;fill:#cccccc;fill-rule: evenodd "/>
<path id="camera_f0001"  d="M 33.0 10.0 L 33.0 10.0 L 33.0 19.0 L 33.0 19.0 L 33.0 10.0 Z " stroke="#191919" stroke-width="0.35 px" style="stroke-width:0.35;stroke-miterlimit:4;stroke-dasharray:none;fill:#cccccc;fill-rule: evenodd "/>
<path id="camera_f0002"  d="M 24.0 10.0 L 24.0 10.0 L 33.0 10.0 L 33.0 10.0 L 24.0 10.0 Z " stroke="#191919" stroke-width="0.35 px" style="stroke-width:0.35;stroke-miterlimit:4;stroke-dasharray:none;fill:#cccccc;fill-rule: evenodd "/>
<path id="camera_f0003"  d="M 33.0 19.0 L 24.0 19.0 L 24.0 19.0 L 33.0 19.0 L 33.0 19.0 Z " stroke="#191919" stroke-width="0.35 px" style="stroke-width:0.35;stroke-miterlimit:4;stroke-dasharray:none;fill:#cccccc;fill-rule: evenodd "/>
<path id="camera_f0004"  d="M 33.0 10.0 L 24.0 10.0 L 24.0 19.0 L 33.0 19.0 L 33.0 10.0 Z " stroke="#191919" stroke-width="0.35 px" style="stroke-width:0.35;stroke-miterlimit:4;stroke-dasharray:none;fill:#cccccc;fill-rule: evenodd "/>
<path id="camera_f0005"  d="M 24.0 19.0 L 24.0 10.0 L 33.0 10.0 L 33.0 19.0 L 24.0 19.0 Z " stroke="#191919" stroke-width="0.35 px" style="stroke-width:0.35;stroke-miterlimit:4;stroke-dasharray:none;fill:#cccccc;fill-rule: evenodd "/>
<title>camera</title>
</g>
</svg>